<?xml version="1.0" standalone="no"?><!DOCTYPE svg PUBLIC "-//W3C//DTD SVG 1.1//EN" "http://www.w3.org/Graphics/SVG/1.1/DTD/svg11.dtd"><svg t="1498786516607" class="icon" style="" viewBox="0 0 1024 1024" version="1.1" xmlns="http://www.w3.org/2000/svg" p-id="4382" xmlns:xlink="http://www.w3.org/1999/xlink" width="16" height="16"><defs><style type="text/css"></style></defs><path d="M863.68247 482.646086l-51.36935 0L812.31312 311.038589c0-163.70452-132.657111-296.361632-296.361632-296.361632-163.70452 0-296.361632 132.657111-296.361632 296.361632l0 172.171996-51.36935 0c-16.370452 0-29.353914 12.983462-29.353914 29.353914l0 465.711136c0 16.370452 12.983462 29.353914 29.353914 29.353914L863.68247 1007.629548c16.370452 0 29.353914-12.983462 29.353914-29.353914L893.036384 512C892.471885 496.194046 879.488423 482.646086 863.68247 482.646086zM311.038589 318.941566c0-112.899669 91.448732-204.9129 204.9129-204.9129 112.899669 0 204.9129 91.448732 204.9129 204.9129l0 163.70452L311.038589 482.646086 311.038589 318.941566z" p-id="4383"></path></svg>