<?xml version="1.0" standalone="no"?><!DOCTYPE svg PUBLIC "-//W3C//DTD SVG 1.1//EN" "http://www.w3.org/Graphics/SVG/1.1/DTD/svg11.dtd"><svg t="1498786305832" class="icon" style="" viewBox="0 0 1024 1024" version="1.1" xmlns="http://www.w3.org/2000/svg" p-id="2884" xmlns:xlink="http://www.w3.org/1999/xlink" width="16" height="16"><defs><style type="text/css"></style></defs><path d="M495.495094 890.467751c-72.151273 0-144.30357 0.318248-216.451774-0.121773-41.764196-0.254803-78.265528-13.32447-104.743576-47.665603-15.110139-19.597337-22.509666-42.348504-23.323195-66.615187-2.208295-65.896826 4.018523-130.894166 29.571503-192.379519 18.977213-45.661969 47.548946-82.757842 98.513688-96.67583 25.408693-6.939039 48.449455-7.013741 71.024613 10.523681 30.02585 23.325241 64.23293 39.365566 101.70231 47.557132 55.518454 12.136412 107.36938 0.957815 156.468634-25.594935 14.343683-7.757684 28.440749-16.358573 41.365106-26.252921 15.498996-11.865235 32.058137-12.482289 49.959855-9.423627 47.600111 8.132214 79.82607 36.298717 102.111632 77.657684 24.361851 45.213761 33.920554 94.442976 38.144762 144.837736 2.025123 24.162306 3.733021 48.764634 1.505283 72.789817-6.367011 68.665893-55.503105 111.045095-126.879736 111.305015C641.47484 890.675482 568.484456 890.467751 495.495094 890.467751z" p-id="2885" fill="#2c2c2c"></path><path d="M684.986843 323.541791c0.551562 104.491843-83.145675 188.744735-188.010001 189.261505-104.305601 0.5137-188.597379-83.302241-189.153034-188.085726-0.555655-104.690364 82.835613-188.66901 187.984419-189.30653C600.172155 134.778636 684.433234 218.573087 684.986843 323.541791z" p-id="2886" fill="#2c2c2c"></path></svg>